<mxfile host="Electron" agent="Mozilla/5.0 (Windows NT 10.0; Win64; x64) AppleWebKit/537.36 (KHTML, like Gecko) draw.io/27.0.5 Chrome/134.0.6998.205 Electron/35.3.0 Safari/537.36" version="27.0.5">
  <diagram name="Page-1" id="4YbqXN-B2ZfZUVGPRfb-">
    <mxGraphModel dx="1042" dy="634" grid="1" gridSize="10" guides="1" tooltips="1" connect="1" arrows="1" fold="1" page="1" pageScale="1" pageWidth="827" pageHeight="1169" math="0" shadow="0">
      <root>
        <mxCell id="0" />
        <mxCell id="1" parent="0" />
        <mxCell id="t5XfPUii4YEmVXyGlIV3-34" value="" style="group" parent="1" vertex="1" connectable="0">
          <mxGeometry x="30" y="90" width="780" height="810" as="geometry" />
        </mxCell>
        <mxCell id="t5XfPUii4YEmVXyGlIV3-2" value="" style="swimlane;startSize=0;" parent="t5XfPUii4YEmVXyGlIV3-34" vertex="1">
          <mxGeometry x="-6" y="20" width="780" height="810" as="geometry" />
        </mxCell>
        <mxCell id="t5XfPUii4YEmVXyGlIV3-3" value="Sistema" style="text;html=1;align=center;verticalAlign=middle;resizable=0;points=[];autosize=1;strokeColor=none;fillColor=none;fontSize=20;" parent="t5XfPUii4YEmVXyGlIV3-2" vertex="1">
          <mxGeometry x="344" width="100" height="40" as="geometry" />
        </mxCell>
        <mxCell id="t5XfPUii4YEmVXyGlIV3-5" value="Inicio" style="strokeWidth=2;html=1;shape=mxgraph.flowchart.start_1;whiteSpace=wrap;" parent="t5XfPUii4YEmVXyGlIV3-2" vertex="1">
          <mxGeometry x="60" y="30" width="100" height="60" as="geometry" />
        </mxCell>
        <mxCell id="t5XfPUii4YEmVXyGlIV3-6" value="Ingresar fecha" style="shape=parallelogram;html=1;strokeWidth=2;perimeter=parallelogramPerimeter;whiteSpace=wrap;rounded=1;arcSize=12;size=0.23;" parent="t5XfPUii4YEmVXyGlIV3-2" vertex="1">
          <mxGeometry x="50" y="145" width="120" height="75" as="geometry" />
        </mxCell>
        <mxCell id="t5XfPUii4YEmVXyGlIV3-7" value="¿Es válida?" style="strokeWidth=2;html=1;shape=mxgraph.flowchart.decision;whiteSpace=wrap;" parent="t5XfPUii4YEmVXyGlIV3-2" vertex="1">
          <mxGeometry x="60" y="265" width="100" height="100" as="geometry" />
        </mxCell>
        <mxCell id="t5XfPUii4YEmVXyGlIV3-9" value="Obtener cotizaciones de la fecha" style="rounded=1;whiteSpace=wrap;html=1;absoluteArcSize=1;arcSize=14;strokeWidth=2;" parent="t5XfPUii4YEmVXyGlIV3-2" vertex="1">
          <mxGeometry x="60" y="480" width="100" height="100" as="geometry" />
        </mxCell>
        <mxCell id="t5XfPUii4YEmVXyGlIV3-10" value="" style="endArrow=classic;html=1;rounded=0;" parent="t5XfPUii4YEmVXyGlIV3-2" source="t5XfPUii4YEmVXyGlIV3-5" target="t5XfPUii4YEmVXyGlIV3-6" edge="1">
          <mxGeometry width="50" height="50" relative="1" as="geometry">
            <mxPoint x="200" y="145" as="sourcePoint" />
            <mxPoint x="250" y="95" as="targetPoint" />
          </mxGeometry>
        </mxCell>
        <mxCell id="t5XfPUii4YEmVXyGlIV3-11" value="" style="endArrow=classic;html=1;rounded=0;" parent="t5XfPUii4YEmVXyGlIV3-2" source="t5XfPUii4YEmVXyGlIV3-6" target="t5XfPUii4YEmVXyGlIV3-7" edge="1">
          <mxGeometry width="50" height="50" relative="1" as="geometry">
            <mxPoint x="200" y="145" as="sourcePoint" />
            <mxPoint x="250" y="95" as="targetPoint" />
          </mxGeometry>
        </mxCell>
        <mxCell id="t5XfPUii4YEmVXyGlIV3-15" value="" style="endArrow=classic;html=1;rounded=0;exitX=1;exitY=0.5;exitDx=0;exitDy=0;exitPerimeter=0;" parent="t5XfPUii4YEmVXyGlIV3-2" source="t5XfPUii4YEmVXyGlIV3-7" target="t5XfPUii4YEmVXyGlIV3-23" edge="1">
          <mxGeometry relative="1" as="geometry">
            <mxPoint x="180" y="215" as="sourcePoint" />
            <mxPoint x="330" y="480" as="targetPoint" />
          </mxGeometry>
        </mxCell>
        <mxCell id="t5XfPUii4YEmVXyGlIV3-16" value="No" style="edgeLabel;resizable=0;html=1;;align=center;verticalAlign=middle;fontSize=14;" parent="t5XfPUii4YEmVXyGlIV3-15" connectable="0" vertex="1">
          <mxGeometry relative="1" as="geometry" />
        </mxCell>
        <mxCell id="t5XfPUii4YEmVXyGlIV3-19" value="" style="endArrow=classic;html=1;rounded=0;exitX=0.5;exitY=1;exitDx=0;exitDy=0;exitPerimeter=0;" parent="t5XfPUii4YEmVXyGlIV3-2" source="t5XfPUii4YEmVXyGlIV3-7" target="t5XfPUii4YEmVXyGlIV3-9" edge="1">
          <mxGeometry relative="1" as="geometry">
            <mxPoint x="180" y="215" as="sourcePoint" />
            <mxPoint x="280" y="215" as="targetPoint" />
          </mxGeometry>
        </mxCell>
        <mxCell id="t5XfPUii4YEmVXyGlIV3-20" value="Si" style="edgeLabel;resizable=0;html=1;;align=center;verticalAlign=middle;fontSize=13;" parent="t5XfPUii4YEmVXyGlIV3-19" connectable="0" vertex="1">
          <mxGeometry relative="1" as="geometry" />
        </mxCell>
        <mxCell id="t5XfPUii4YEmVXyGlIV3-21" value="Guardar datos" style="rounded=1;whiteSpace=wrap;html=1;absoluteArcSize=1;arcSize=14;strokeWidth=2;" parent="t5XfPUii4YEmVXyGlIV3-2" vertex="1">
          <mxGeometry x="460" y="480" width="100" height="100" as="geometry" />
        </mxCell>
        <mxCell id="t5XfPUii4YEmVXyGlIV3-22" value="" style="endArrow=classic;html=1;rounded=0;exitX=1;exitY=0.5;exitDx=0;exitDy=0;" parent="t5XfPUii4YEmVXyGlIV3-2" source="t5XfPUii4YEmVXyGlIV3-9" target="t5XfPUii4YEmVXyGlIV3-21" edge="1">
          <mxGeometry width="50" height="50" relative="1" as="geometry">
            <mxPoint x="235" y="550" as="sourcePoint" />
            <mxPoint x="285" y="500" as="targetPoint" />
          </mxGeometry>
        </mxCell>
        <mxCell id="t5XfPUii4YEmVXyGlIV3-23" value="¿Continuar?" style="rhombus;whiteSpace=wrap;html=1;" parent="t5XfPUii4YEmVXyGlIV3-2" vertex="1">
          <mxGeometry x="470" y="275" width="80" height="80" as="geometry" />
        </mxCell>
        <mxCell id="t5XfPUii4YEmVXyGlIV3-24" value="" style="endArrow=classic;html=1;rounded=0;entryX=0.5;entryY=1;entryDx=0;entryDy=0;" parent="t5XfPUii4YEmVXyGlIV3-2" source="t5XfPUii4YEmVXyGlIV3-21" target="t5XfPUii4YEmVXyGlIV3-23" edge="1">
          <mxGeometry width="50" height="50" relative="1" as="geometry">
            <mxPoint x="230" y="570" as="sourcePoint" />
            <mxPoint x="510" y="360" as="targetPoint" />
          </mxGeometry>
        </mxCell>
        <mxCell id="t5XfPUii4YEmVXyGlIV3-32" value="" style="endArrow=classic;html=1;rounded=0;exitX=0.5;exitY=0;exitDx=0;exitDy=0;" parent="t5XfPUii4YEmVXyGlIV3-2" source="t5XfPUii4YEmVXyGlIV3-23" target="t5XfPUii4YEmVXyGlIV3-6" edge="1">
          <mxGeometry relative="1" as="geometry">
            <mxPoint x="380" y="300" as="sourcePoint" />
            <mxPoint x="380" y="415" as="targetPoint" />
          </mxGeometry>
        </mxCell>
        <mxCell id="t5XfPUii4YEmVXyGlIV3-33" value="Si" style="edgeLabel;resizable=0;html=1;;align=center;verticalAlign=middle;fontSize=14;" parent="t5XfPUii4YEmVXyGlIV3-32" connectable="0" vertex="1">
          <mxGeometry relative="1" as="geometry" />
        </mxCell>
        <mxCell id="t5XfPUii4YEmVXyGlIV3-8" value="Fin" style="strokeWidth=2;html=1;shape=mxgraph.flowchart.terminator;whiteSpace=wrap;" parent="t5XfPUii4YEmVXyGlIV3-2" vertex="1">
          <mxGeometry x="646" y="285" width="100" height="60" as="geometry" />
        </mxCell>
        <mxCell id="t5XfPUii4YEmVXyGlIV3-25" value="" style="endArrow=classic;html=1;rounded=0;exitX=1;exitY=0.5;exitDx=0;exitDy=0;" parent="t5XfPUii4YEmVXyGlIV3-2" source="t5XfPUii4YEmVXyGlIV3-23" target="t5XfPUii4YEmVXyGlIV3-8" edge="1">
          <mxGeometry relative="1" as="geometry">
            <mxPoint x="240" y="490" as="sourcePoint" />
            <mxPoint x="365" y="490" as="targetPoint" />
          </mxGeometry>
        </mxCell>
        <mxCell id="t5XfPUii4YEmVXyGlIV3-26" value="No" style="edgeLabel;resizable=0;html=1;;align=center;verticalAlign=middle;fontSize=13;" parent="t5XfPUii4YEmVXyGlIV3-25" connectable="0" vertex="1">
          <mxGeometry relative="1" as="geometry" />
        </mxCell>
      </root>
    </mxGraphModel>
  </diagram>
</mxfile>
